<?xml version="1.0" encoding="UTF-8"?>
<svg id="VECTO" xmlns="http://www.w3.org/2000/svg" viewBox="0 0 160 160">
  <g>
    <path d="M89.3,47.97c-1.01-1.78-1.63-3.82-1.87-6.09-.41-4.01.43-7.7,2.53-11.13,1.91-3.09,4.98-5.55,8.34-6.84,3.88-1.48,7.79-1.57,11.75-.26,2.85.94,5.36,2.62,7.55,5.02.73.81,1.91,2.62,3.47,5.43,1.82,3.2,10.19,17.69,25.09,43.51,1.37,2.38,2.7,4.68,3.95,6.88,1.29,2.27,1.99,4.78,2.1,7.53.09,2.36-.21,4.55-.92,6.56-1.8,5.13-5.96,9.16-11.22,10.74-6.58,1.97-13.55-.04-18.1-5.21-.75-.86-1.72-2.29-2.87-4.38l-29.81-51.77Z"/>
    <path d="M34.46,48.16c-1.01-1.78-1.63-3.82-1.87-6.09-.41-4.01.43-7.7,2.53-11.13,1.91-3.09,4.98-5.55,8.34-6.84,3.88-1.48,7.79-1.57,11.75-.26,2.85.94,5.36,2.62,7.55,5.02.73.81,1.91,2.62,3.47,5.43,1.82,3.2,10.19,17.69,25.09,43.51,1.37,2.38,2.7,4.68,3.95,6.88,1.29,2.27,1.99,4.78,2.1,7.53.09,2.36-.21,4.55-.92,6.56-1.8,5.13-5.96,9.16-11.22,10.74-6.58,1.97-13.55-.04-18.1-5.21-.75-.86-1.72-2.29-2.87-4.38l-29.81-51.77Z"/>
    <circle cx="25.22" cy="92.62" r="17.46"/>
  </g>
  <g>
    <path d="M10.25,137.13l-3.18-7.23v7.23h-2.13v-9.38h3.29l2.93,6.72,2.91-6.72h3.24v9.38h-2.12v-7.23l-3.19,7.23h-1.76Z"/>
    <path d="M27.48,127.74l4.67,9.38h-2.37l-.99-2.01h-5.15l-.99,2.01h-2.33l4.69-9.38h2.47ZM24.53,133.31h3.38l-1.69-3.43-1.7,3.43Z"/>
    <path d="M38.74,137.27c-2.16,0-3.92-1.1-4.51-2.68l1.96-1.16c.29,1.07,1.24,1.92,2.56,1.92,1.4,0,2.3-.68,2.3-2.04v-5.57h2.18v5.73c0,2.3-1.78,3.8-4.49,3.8Z"/>
    <path d="M55.96,127.74v1.87h-6.95v1.8h6.21v1.84h-6.21v2h6.95v1.87h-9.09v-9.38h9.09Z"/>
    <path d="M70.49,127.6c2.52,0,4.33,1.13,5.05,2.99l-1.93.93c-.47-1.24-1.53-2.02-3.11-2.02-1.89,0-3.35,1.16-3.35,2.94s1.45,2.94,3.35,2.94c1.58,0,2.64-.79,3.11-2.03l1.93.93c-.72,1.85-2.52,2.99-5.05,2.99-3.22,0-5.57-2.04-5.57-4.84s2.35-4.84,5.57-4.84Z"/>
    <path d="M89.41,132.43c0,2.8-2.34,4.84-5.57,4.84s-5.58-2.04-5.58-4.84,2.34-4.84,5.58-4.84,5.57,2.04,5.57,4.84ZM80.49,132.43c0,1.78,1.4,2.94,3.36,2.94s3.35-1.16,3.35-2.94-1.4-2.94-3.35-2.94-3.36,1.16-3.36,2.94Z"/>
    <path d="M102.68,137.13h-1.92l-5.86-6.6v6.6h-2.11v-9.38h2.21l5.57,6.28v-6.28h2.12v9.38Z"/>
    <path d="M111.63,127.6c2.52,0,4.33,1.13,5.05,2.99l-1.93.93c-.47-1.24-1.53-2.02-3.11-2.02-1.89,0-3.35,1.16-3.35,2.94s1.45,2.94,3.35,2.94c1.58,0,2.64-.79,3.11-2.03l1.93.93c-.72,1.85-2.52,2.99-5.05,2.99-3.22,0-5.57-2.04-5.57-4.84s2.35-4.84,5.57-4.84Z"/>
    <path d="M128.93,127.74v1.87h-6.95v1.8h6.21v1.84h-6.21v2h6.95v1.87h-9.09v-9.38h9.09Z"/>
    <path d="M134.6,137.13h-2.18v-9.38h5.91c2.21,0,3.66,1.04,3.66,3.06s-1.45,3.06-3.66,3.06h-3.72v3.27ZM138.2,132.03c1.03,0,1.62-.46,1.62-1.23s-.59-1.22-1.62-1.22h-3.61v2.45h3.61Z"/>
    <path d="M150.99,129.61v7.52h-2.18v-7.52h-4.08v-1.87h10.33v1.87h-4.07Z"/>
  </g>
</svg>